<svg width="114" height="111" viewBox="0 0 114 111" fill="none" xmlns="http://www.w3.org/2000/svg">
<path fill-rule="evenodd" clip-rule="evenodd" d="M27.0864 0.19383C21.524 0.9792 16.4665 4.85055 13.808 10.3587C12.5748 12.9131 12.4795 13.4337 12.4867 17.5601C12.4931 21.1158 12.8091 23.4198 14.0613 29.0492C14.9225 32.9222 15.7189 36.7347 15.8303 37.5213C15.9417 38.3084 16.2653 40.1388 16.5491 41.5892C16.9545 43.6598 16.9549 44.751 16.5504 46.6725C16.2674 48.0179 15.9209 49.6907 15.7803 50.3897C15.527 51.6474 12.3838 57.0365 11.7446 57.3085C11.562 57.3864 11.4129 57.6105 11.4129 57.8071C11.4129 58.2574 7.9232 63.472 7.49451 63.6626C7.31998 63.7405 7.1768 64.0875 7.1768 64.4344C7.1768 64.7809 6.93831 65.3303 6.64729 65.6553C5.52642 66.9049 5.16551 67.4302 3.30757 70.5111C2.25405 72.2585 1.07346 74.6773 0.683738 75.8858C-0.626905 79.9525 -0.00335479 86.0791 2.12655 90.0589C4.04718 93.6477 10.0201 97.9638 14.293 98.8504C17.4518 99.5062 19.0527 99.4393 24.122 98.4396C26.5679 97.9571 29.6174 97.3958 30.8988 97.1916C32.1803 96.9878 34.6584 96.5147 36.4058 96.1402C45.3973 94.2141 49.2106 94.3136 53.9012 96.5964C55.5452 97.3962 57.1897 98.29 57.5557 98.5823C57.9221 98.8746 58.8888 99.474 59.7042 99.9146C60.5196 100.355 62.3306 101.517 63.7285 102.497C65.1264 103.477 66.9373 104.619 67.7527 105.034C68.5682 105.449 69.3307 105.924 69.4472 106.09C69.5637 106.256 70.8027 107.028 72.2006 107.806C77.9723 111.019 77.7516 110.955 83.0446 110.961C86.3767 110.964 88.3532 110.776 89.1869 110.377C89.8625 110.053 91.0728 109.481 91.8764 109.106C96.6809 106.863 100.01 102.57 101.426 96.7892C102.195 93.6532 102.171 93.1114 101.029 87.6672C100.638 85.8033 100.138 83.3252 99.9177 82.1603C99.6979 80.9954 99.2234 78.6126 98.8634 76.8652C97.2426 68.992 96.8165 65.4138 97.3308 63.9913C97.6048 63.2339 97.8289 62.2101 97.8289 61.7161C97.8289 61.2222 98.0195 60.7003 98.2525 60.5563C98.4855 60.4123 98.6761 59.9696 98.6761 59.5722C98.6761 59.1753 99.9152 56.9713 101.43 54.6741C102.944 52.3773 104.183 50.4219 104.183 50.3291C104.183 50.1199 106.416 46.6573 106.74 46.3654C107.129 46.0134 110.537 40.7793 110.537 40.5323C110.537 40.4065 110.984 39.7131 111.531 38.9921C113.69 36.145 114.645 29.7617 113.533 25.6086C112.696 22.482 112.487 21.9694 111.526 20.6973C110.982 19.9763 110.537 19.2681 110.537 19.1232C110.537 18.9787 109.654 18.0146 108.575 16.9806C106.632 15.1184 103.844 13.5468 100.594 12.4814C98.8553 11.9117 91.7569 11.8265 90.894 12.3649C90.631 12.5289 89.4627 12.7911 88.2977 12.9474C85.8522 13.2753 80.8033 14.1992 74.7423 15.4276C65.9554 17.2089 62.6182 16.4727 53.9855 10.8476C50.2611 8.42115 47.844 7.00502 46.8901 6.69155C46.4821 6.55727 46.1487 6.27896 46.1487 6.07309C46.1487 5.86764 45.9844 5.69904 45.784 5.69904C45.5832 5.69904 44.0104 4.77558 42.2892 3.64708C40.5677 2.51859 38.3014 1.2914 37.253 0.920318C34.9087 0.0904699 30.202 -0.245875 27.0864 0.19383Z" fill="#8AA4C9"/>
</svg>
