<svg width="132" height="109" viewBox="0 0 132 109" fill="none" xmlns="http://www.w3.org/2000/svg">
<path fill-rule="evenodd" clip-rule="evenodd" d="M101.169 0.551587C87.5419 -0.911364 73.0974 5.81207 67.1185 16.4007L65.4177 19.4134L64.1203 16.8176C63.4068 15.3908 60.7218 12.1183 58.1547 9.54681C45.5505 -3.0761 23.646 -3.19798 10.2639 9.27996C6.08882 13.1733 5.09826 14.7649 2.52647 21.7165C-0.0217934 28.6042 -0.331175 30.5684 0.248583 36.1578C1.68602 50.0235 11.6883 66.9416 26.7006 80.8965C38.7988 92.1424 58.459 106.38 65.0174 108.645C67.5379 109.515 74.3123 105.686 88.5357 95.3523C99.7928 87.1738 110.022 77.7382 117.305 68.8173C124.994 59.3982 131.175 44.5957 131.106 35.7689C131.018 24.6057 125.84 13.4688 118.122 7.84898C113.446 4.44377 105.479 1.01464 101.169 0.551587Z" fill="#E19DC4"/>
</svg>
