<svg width="341" height="262" viewBox="0 0 341 262" fill="none" xmlns="http://www.w3.org/2000/svg">
<path fill-rule="evenodd" clip-rule="evenodd" d="M69.364 71.4027C63.6156 80.661 58.8711 91.5259 56.013 101.978C45.4435 140.633 57.2713 183.278 86.4304 211.645C94.7664 219.754 112.96 231.646 122.531 235.24C136.97 240.663 147.981 242.913 162.054 243.316C196.142 244.291 228.993 229.256 251.681 202.295L254.966 198.391L247.839 193.36C243.919 190.591 239.568 187.408 238.171 186.285C236.774 185.161 229.751 179.848 222.565 174.477L209.5 164.712L205.134 169.303C194.05 180.958 176.394 187.74 160.361 186.5C141.792 185.065 124.585 173.901 115.746 157.556C109.869 146.687 107.573 132.45 109.812 120.747C111 114.539 114.333 106.045 117.238 101.826L119.83 98.063L113.601 93.138C110.175 90.4303 102.223 84.4067 95.9303 79.7533C89.6368 75.1006 82.2281 69.4773 79.466 67.2573L74.4437 63.2217L69.364 71.4027Z" fill="#808F55"/>
<path d="M274.737 133.55C275.16 132.362 276.84 132.362 277.263 133.55L288.323 164.652C288.589 165.4 289.443 165.754 290.16 165.413L319.973 151.242C321.112 150.7 322.3 151.888 321.758 153.027L307.587 182.84C307.246 183.557 307.6 184.411 308.348 184.677L339.45 195.737C340.638 196.16 340.638 197.84 339.45 198.263L308.348 209.323C307.6 209.589 307.246 210.443 307.587 211.16L321.758 240.973C322.3 242.112 321.112 243.3 319.973 242.758L290.16 228.587C289.443 228.246 288.589 228.6 288.323 229.348L277.263 260.45C276.84 261.638 275.16 261.638 274.737 260.45L263.677 229.348C263.411 228.6 262.557 228.246 261.84 228.587L232.027 242.758C230.888 243.3 229.7 242.112 230.242 240.973L244.413 211.16C244.754 210.443 244.4 209.589 243.652 209.323L212.55 198.263C211.362 197.84 211.362 196.16 212.55 195.737L243.652 184.677C244.4 184.411 244.754 183.557 244.413 182.84L230.242 153.027C229.7 151.888 230.888 150.7 232.027 151.242L261.84 165.413C262.557 165.754 263.411 165.4 263.677 164.652L274.737 133.55Z" fill="#BBCEED"/>
<path fill-rule="evenodd" clip-rule="evenodd" d="M223.559 0.491188C212.088 3.37361 202.398 13.129 200.717 23.4876L200.239 26.4347L198.414 24.7199C197.41 23.7775 194.259 21.929 191.413 20.6129C177.439 14.1534 159.666 20.5922 152.554 34.6902C150.335 39.0889 150.008 40.6734 150 47.0699C149.992 53.4078 150.328 55.0907 152.466 59.4436C157.768 70.2424 170.917 80.9565 187.238 87.7759C200.391 93.2715 220.56 98.9328 226.547 98.8094C228.847 98.762 233.19 93.6392 241.623 81.0264C248.298 71.0441 253.765 60.3507 256.999 50.9534C260.414 41.0315 261.002 27.2002 258.311 20.0735C254.908 11.0604 247.392 3.58763 239.465 1.34038C234.662 -0.0214345 227.187 -0.420141 223.559 0.491188Z" fill="#F6BDDE"/>
<path fill-rule="evenodd" clip-rule="evenodd" d="M20.9933 143.15C16.6822 143.759 12.7624 146.759 10.7019 151.029C9.74613 153.008 9.67226 153.412 9.67784 156.61C9.68276 159.366 9.92769 161.152 10.8982 165.515C11.5657 168.516 12.1829 171.471 12.2692 172.081C12.3556 172.691 12.6064 174.11 12.8264 175.234C13.1406 176.839 13.1409 177.684 12.8274 179.174C12.6081 180.216 12.3395 181.513 12.2305 182.055C12.0342 183.029 9.59806 187.206 9.10263 187.417C8.96112 187.477 8.84555 187.651 8.84555 187.803C8.84555 188.152 6.14087 192.194 5.80862 192.342C5.67335 192.402 5.56238 192.671 5.56238 192.94C5.56238 193.208 5.37754 193.634 5.15198 193.886C4.28325 194.855 4.00353 195.262 2.56353 197.65C1.747 199.004 0.831983 200.879 0.529931 201.815C-0.485883 204.967 -0.00260019 209.716 1.64818 212.8C3.13677 215.582 7.76605 218.927 11.0778 219.614C13.526 220.122 14.7668 220.07 18.6957 219.296C20.5914 218.922 22.955 218.487 23.9481 218.328C24.9413 218.17 26.862 217.804 28.2163 217.513C35.1851 216.021 38.1406 216.098 41.7761 217.867C43.0503 218.487 44.3248 219.18 44.6085 219.406C44.8925 219.633 45.6417 220.097 46.2737 220.439C46.9057 220.78 48.3093 221.68 49.3927 222.44C50.4762 223.2 51.8797 224.085 52.5118 224.406C53.1438 224.728 53.7347 225.097 53.825 225.225C53.9153 225.353 54.8756 225.952 55.9591 226.555C60.4324 229.046 60.2614 228.996 64.3637 229C66.9462 229.003 68.4782 228.857 69.1243 228.548C69.648 228.296 70.586 227.853 71.2088 227.563C74.9325 225.824 77.5125 222.497 78.6104 218.016C79.2059 215.586 79.1875 215.166 78.3024 210.946C77.9994 209.502 77.6119 207.581 77.4412 206.678C77.2708 205.775 76.9031 203.929 76.624 202.574C75.3679 196.472 75.0376 193.699 75.4362 192.596C75.6486 192.009 75.8223 191.216 75.8223 190.833C75.8223 190.45 75.97 190.046 76.1506 189.934C76.3312 189.822 76.4789 189.479 76.4789 189.171C76.4789 188.864 77.4393 187.156 78.613 185.375C79.7867 183.595 80.747 182.079 80.747 182.008C80.747 181.845 82.4779 179.162 82.7284 178.936C83.0305 178.663 85.6718 174.606 85.6718 174.415C85.6718 174.317 86.0185 173.78 86.442 173.221C88.1155 171.014 88.8555 166.067 87.9937 162.848C87.3449 160.425 87.1827 160.027 86.4384 159.041C86.0169 158.483 85.6718 157.934 85.6718 157.821C85.6718 157.709 84.9876 156.962 84.1514 156.161C82.6451 154.717 80.4841 153.499 77.9652 152.674C76.6178 152.232 71.1162 152.166 70.4474 152.583C70.2435 152.71 69.338 152.914 68.4352 153.035C66.5398 153.289 62.6266 154.005 57.929 154.957C51.1187 156.338 48.5322 155.767 41.8414 151.407C38.9549 149.527 37.0815 148.429 36.3421 148.186C36.026 148.082 35.7676 147.867 35.7676 147.707C35.7676 147.548 35.6402 147.417 35.4849 147.417C35.3293 147.417 34.1102 146.701 32.7763 145.827C31.442 144.952 29.6855 144.001 28.8729 143.713C27.056 143.07 23.4081 142.809 20.9933 143.15Z" fill="#F7DA72"/>
</svg>
