<svg width="352" height="352" viewBox="0 0 352 352" fill="none" xmlns="http://www.w3.org/2000/svg">
<path d="M172.552 2.69716C173.705 -0.547752 178.295 -0.547761 179.448 2.69715L209.657 87.6453C210.384 89.6888 212.718 90.6557 214.677 89.7246L296.105 51.018C299.216 49.5394 302.461 52.7843 300.982 55.8948L262.275 137.323C261.344 139.282 262.311 141.616 264.355 142.343L349.303 172.552C352.548 173.705 352.548 178.295 349.303 179.448L264.355 209.657C262.311 210.384 261.344 212.718 262.275 214.677L300.982 296.105C302.461 299.216 299.216 302.461 296.105 300.982L214.677 262.275C212.718 261.344 210.384 262.311 209.657 264.355L179.448 349.303C178.295 352.548 173.705 352.548 172.552 349.303L142.343 264.355C141.616 262.311 139.282 261.344 137.323 262.275L55.8948 300.982C52.7843 302.461 49.5394 299.216 51.018 296.105L89.7246 214.677C90.6557 212.718 89.6888 210.384 87.6453 209.657L2.69716 179.448C-0.547752 178.295 -0.547761 173.705 2.69715 172.552L87.6453 142.343C89.6888 141.616 90.6557 139.282 89.7246 137.323L51.018 55.8948C49.5394 52.7843 52.7843 49.5394 55.8948 51.018L137.323 89.7246C139.282 90.6557 141.616 89.6888 142.343 87.6453L172.552 2.69716Z" fill="#BBCEED"/>
</svg>
