<svg width="425" height="228" viewBox="0 0 425 228" fill="none" xmlns="http://www.w3.org/2000/svg">
<path d="M132 0L263.636 228H0.364136L132 0Z" fill="#8AA4C9"/>
<path fill-rule="evenodd" clip-rule="evenodd" d="M378.387 63.5673C363.195 67.8876 350.237 71.0016 349.594 70.4889C348.95 69.9761 344.962 56.9162 340.731 41.4655L333.037 13.3739L315.512 18.1181C277.873 28.3037 255.609 34.8681 255.828 35.715C255.952 36.2011 259.649 49.239 264.042 64.6888L272.028 92.7821L259.844 96.2091C253.142 98.0934 241.195 101.327 233.292 103.395C225.391 105.464 217.873 107.773 216.585 108.531C215.226 109.331 217.223 120.926 221.348 136.193C231.756 174.703 232.8 177.875 235.132 178.155C236.3 178.297 249.14 175.028 263.666 170.895C278.19 166.761 290.473 163.681 290.96 164.051C291.446 164.423 295.731 178.844 300.483 196.099C307.028 219.867 309.915 227.364 312.398 227.025C314.2 226.778 331.59 222.109 351.046 216.646L386.414 206.716L368.47 142.063L394.971 134.811C409.547 130.823 422.516 126.949 423.789 126.198C425.065 125.449 424.711 119.59 423.006 113.178C413.074 75.856 407.766 57.1128 406.943 56.457C406.43 56.0481 393.58 59.2482 378.387 63.5673Z" fill="#F7DA72"/>
</svg>
