<svg width="427" height="507" viewBox="0 0 427 507" fill="none" xmlns="http://www.w3.org/2000/svg">
<path fill-rule="evenodd" clip-rule="evenodd" d="M131.85 436.429C140.733 449.319 152.308 461.812 164.424 471.583C209.236 507.722 272.178 516.669 326.285 494.591C341.753 488.279 367.868 471.165 378.104 460.632C393.543 444.741 402.837 431.539 411.458 413.244C432.34 368.929 431.433 317.037 408.985 271.669L405.735 265.1L395.013 271.59C389.115 275.159 382.422 279.056 380.14 280.25C377.858 281.443 366.826 287.633 355.624 294.005L335.257 305.592L338.791 313.978C347.762 335.271 346.538 362.413 335.688 382.807C323.123 406.427 298.533 422.662 271.934 424.9C254.246 426.389 234.184 421.226 220.064 411.55C212.574 406.417 203.309 397.146 199.425 390.895L195.961 385.32L185.897 390.688C180.363 393.642 167.861 400.647 158.117 406.256C148.373 411.866 136.711 418.387 132.2 420.746L124 425.038L131.85 436.429Z" fill="#808F55"/>
<path fill-rule="evenodd" clip-rule="evenodd" d="M140.925 206.068C123.904 199.993 103.311 204.162 92.3814 215.896L89.2721 219.235L88.4087 215.507C87.9335 213.457 85.4994 208.434 83.0004 204.345C70.7295 184.276 42.6813 177.369 21.6773 189.244C15.1242 192.949 13.3635 194.685 7.92361 202.805C2.53351 210.851 1.53148 213.274 0.552242 220.62C-1.87796 238.841 5.73295 263.616 20.6808 286.136C32.7272 304.284 53.5475 328.598 61.2586 333.524C64.2222 335.416 74.0885 332.594 95.5104 323.728C112.465 316.711 128.489 307.765 140.576 298.571C153.337 288.864 165.825 271.789 168.456 260.45C171.784 246.11 168.577 230.234 160.414 220.65C155.468 214.843 146.308 207.99 140.925 206.068Z" fill="#F6BDDE"/>
<path d="M295.953 43.4175L209.99 107.283L197.662 0.904785L295.953 43.4175Z" fill="#9FB166"/>
</svg>
