<svg width="121" height="78" viewBox="0 0 121 78" fill="none" xmlns="http://www.w3.org/2000/svg">
<path d="M32.3636 23L63.8555 77.5455H0.871796L32.3636 23Z" fill="#8AA4C9"/>
<path fill-rule="evenodd" clip-rule="evenodd" d="M110.919 32.036C105.493 30.4421 100.975 28.9098 100.878 28.6317C100.781 28.3535 102.068 23.6367 103.738 18.1495L106.775 8.17283L100.561 6.26174C87.2174 2.15601 79.2212 -0.109206 79.1256 0.189004C79.0704 0.359944 77.6993 5.01442 76.0782 10.5322L73.1298 20.5652L68.7856 19.2755C66.396 18.5658 62.1604 17.263 59.3722 16.3794C56.5843 15.4966 53.8664 14.7595 53.3317 14.7432C52.7672 14.7256 51.1571 18.6185 49.4897 24.03C45.285 37.6802 44.995 38.8401 45.648 39.3705C45.9747 39.6364 50.4871 41.0993 55.6758 42.6225C60.8636 44.1452 65.1718 45.5591 65.2486 45.7642C65.3247 45.9695 63.8675 51.1552 62.0101 57.2882C59.4517 65.7361 58.894 68.5579 59.7104 68.9297C60.3033 69.1992 66.4616 71.1071 73.3968 73.1696L86.0043 76.9187L92.9209 53.9124L102.332 56.7786C107.507 58.3555 112.175 59.6598 112.704 59.6757C113.234 59.6923 114.246 57.8505 114.954 55.5831C119.076 42.3837 121.049 35.6937 120.925 35.3379C120.848 35.1161 116.345 33.6305 110.919 32.036Z" fill="#F7DA72"/>
</svg>
