<svg width="84" height="74" viewBox="0 0 84 74" fill="none" xmlns="http://www.w3.org/2000/svg">
<path fill-rule="evenodd" clip-rule="evenodd" d="M8.03623 3.84164C5.68119 7.59157 3.73066 11.9964 2.54751 16.2372C-1.82794 31.9219 2.88901 49.2746 14.6779 60.8615C18.0481 64.174 25.4158 69.0439 29.2973 70.5246C35.1528 72.7581 39.6224 73.6954 45.3397 73.8884C59.1887 74.3558 72.5684 68.3152 81.8435 57.4078L83.1865 55.8284L80.3009 53.7689C78.714 52.6359 76.9527 51.3332 76.3873 50.8741C75.822 50.4147 72.9797 48.2411 70.071 46.0437L64.7824 42.0487L62.999 43.905C58.4709 48.6175 51.2826 51.3362 44.7705 50.7989C37.2285 50.177 30.2599 45.6048 26.7028 38.9449C24.3372 34.5165 23.4343 28.7268 24.3684 23.9759C24.8639 21.4559 26.2361 18.0117 27.4255 16.3034L28.4862 14.7799L25.9657 12.7657C24.5793 11.6584 21.3608 9.19415 18.8134 7.29022C16.2659 5.38656 13.2673 3.08615 12.1496 2.17835L10.1174 0.528076L8.03623 3.84164Z" fill="#808F55"/>
</svg>
