<svg width="425" height="228" viewBox="0 0 425 228" fill="none" xmlns="http://www.w3.org/2000/svg">
<path d="M132 0L263.636 228H0.364136L132 0Z" fill="#8AA4C9"/>
<path fill-rule="evenodd" clip-rule="evenodd" d="M378.387 63.5674C363.195 67.8877 350.237 71.0017 349.594 70.489C348.95 69.9762 344.962 56.9163 340.731 41.4656L333.037 13.374L315.512 18.1182C277.873 28.3038 255.609 34.8682 255.828 35.7151C255.952 36.2012 259.649 49.2391 264.042 64.6889L272.028 92.7822L259.844 96.2092C253.142 98.0935 241.195 101.328 233.292 103.395C225.391 105.464 217.873 107.773 216.585 108.531C215.226 109.331 217.223 120.926 221.348 136.194C231.756 174.704 232.8 177.876 235.132 178.156C236.3 178.297 249.14 175.029 263.666 170.895C278.19 166.761 290.473 163.681 290.96 164.051C291.446 164.423 295.731 178.844 300.483 196.099C307.028 219.867 309.915 227.364 312.398 227.025C314.2 226.779 331.59 222.109 351.046 216.646L386.414 206.716L368.47 142.064L394.971 134.811C409.547 130.823 422.516 126.949 423.79 126.198C425.065 125.449 424.711 119.59 423.006 113.178C413.074 75.8561 407.766 57.1129 406.943 56.4571C406.43 56.0482 393.58 59.2483 378.387 63.5674Z" fill="#F7DA72"/>
</svg>
