<svg width="379" height="356" viewBox="0 0 379 356" fill="none" xmlns="http://www.w3.org/2000/svg">
<path fill-rule="evenodd" clip-rule="evenodd" d="M83.8495 285.429C92.7329 298.319 104.308 310.812 116.424 320.583C161.236 356.722 224.177 365.669 278.285 343.591C293.753 337.279 319.868 320.165 330.104 309.632C345.543 293.741 354.837 280.539 363.458 262.244C384.34 217.929 383.433 166.037 360.985 120.669L357.735 114.1L347.013 120.59C341.115 124.158 334.422 128.056 332.14 129.25C329.858 130.443 318.826 136.633 307.624 143.005L287.257 154.592L290.791 162.978C299.762 184.271 298.538 211.413 287.688 231.807C275.123 255.427 250.533 271.662 223.934 273.9C206.246 275.389 186.184 270.226 172.064 260.55C164.574 255.417 155.309 246.146 151.425 239.895L147.961 234.32L137.897 239.688C132.363 242.641 119.861 249.647 110.117 255.256C100.373 260.866 88.7107 267.386 84.2002 269.746L76 274.038L83.8495 285.429Z" fill="#808F55"/>
<path fill-rule="evenodd" clip-rule="evenodd" d="M140.925 23.0683C123.903 16.9929 103.311 21.162 92.3813 32.896L89.272 36.2347L88.4086 32.5065C87.9334 30.4571 85.4994 25.4337 83.0003 21.3454C70.7295 1.2759 42.6812 -5.63111 21.6772 6.24382C15.1241 9.94912 13.3635 11.6846 7.92355 19.8052C2.53345 27.8513 1.53142 30.2744 0.552181 37.6198C-1.87802 55.8413 5.73289 80.6162 20.6807 103.136C32.7272 121.284 53.5474 145.598 61.2586 150.524C64.2221 152.416 74.0884 149.594 95.5103 140.728C112.465 133.711 128.489 124.765 140.575 115.571C153.337 105.864 165.825 88.7891 168.456 77.45C171.784 63.1096 168.577 47.2341 160.414 37.6499C155.468 31.8427 146.308 24.9903 140.925 23.0683Z" fill="#F6BDDE"/>
</svg>
