<svg width="116" height="116" viewBox="0 0 116 116" fill="none" xmlns="http://www.w3.org/2000/svg">
<circle cx="58" cy="58" r="57.5" fill="#E19DC4" stroke="#1B1B1B"/>
<mask id="mask0_416_2" style="mask-type:alpha" maskUnits="userSpaceOnUse" x="1" y="1" width="114" height="114">
<circle cx="58" cy="58" r="56.5086" fill="#F6BDDE" stroke="#1B1B1B" stroke-width="0.982759"/>
</mask>
<g mask="url(#mask0_416_2)">
<path d="M102.079 102.198C101.802 102.678 101.404 103.076 100.924 103.353C100.444 103.63 99.9001 103.776 99.3462 103.776C99.3462 103.776 75.3838 118.491 58.5 118C41.4155 117.503 18.1519 101.044 18.1519 101.044C17.5983 101.044 17.0546 100.897 16.5754 100.62C16.0963 100.343 15.6984 99.9447 15.4219 99.4651C15.1454 98.9856 14.9999 98.4417 15 97.8882C15.0001 97.3346 17.1461 93.6349 17.4229 93.1555C23.4294 82.7713 32.6856 75.3253 43.4879 71.7955C38.1446 68.6146 33.9932 63.7677 31.6712 57.999C29.3492 52.2304 28.985 45.859 30.6346 39.8634C32.2841 33.8677 35.8562 28.5793 40.8022 24.8103C45.7483 21.0413 51.7948 19 58.0132 19C64.2316 19 70.2781 21.0413 75.2241 24.8103C80.1702 28.5793 83.7422 33.8677 85.3918 39.8634C87.0413 45.859 86.6771 52.2304 84.3551 57.999C82.0332 63.7677 77.8818 68.6146 72.5385 71.7955C83.3407 75.3253 92.597 82.7713 98.6035 93.1555C98.881 93.6348 102.499 100.066 102.5 100.62C102.501 101.174 102.356 101.718 102.079 102.198Z" fill="#FAF4E5"/>
<path fill-rule="evenodd" clip-rule="evenodd" d="M76.9527 91.134C75.4533 91.001 73.8807 91.7687 73.2455 92.9436L73.0649 93.2779L72.9171 92.9955C72.8359 92.8402 72.5344 92.4863 72.2473 92.2091C70.8375 90.8484 68.4317 90.8795 66.9875 92.2769C66.5369 92.7129 66.4313 92.8897 66.163 93.6584C65.8971 94.4199 65.8671 94.6363 65.9421 95.2489C66.1281 96.7687 67.2608 98.6063 68.9377 100.108C70.2891 101.319 72.477 102.843 73.2019 103.078C73.4804 103.168 74.2166 102.734 75.7576 101.57C76.9773 100.649 78.0815 99.5925 78.8632 98.5981C79.6885 97.5481 80.3373 95.91 80.3117 94.9408C80.2795 93.7151 79.6882 92.5026 78.8293 91.901C78.3089 91.5366 77.427 91.1762 76.9527 91.134Z" fill="#E19DC4"/>
</g>
</svg>
