<svg width="55" height="53" viewBox="0 0 55 53" fill="none" xmlns="http://www.w3.org/2000/svg">
<path fill-rule="evenodd" clip-rule="evenodd" d="M25.0295 0.747335C24.2979 1.24445 23.7509 1.96338 23.3946 2.89596C22.0257 6.48033 25.1513 9.9683 28.8889 9.02695C30.4044 8.64558 31.2107 7.95808 32.0327 6.34676C32.8154 4.8125 32.796 4.40212 31.8541 2.54027C30.9336 0.721044 29.7148 0 27.5598 0C26.536 0 25.8168 0.212445 25.0295 0.747335ZM41.0989 8.46154C39.8841 9.67637 40.4773 11.7872 42.5637 13.6723C44.9129 15.7947 45.3028 15.7723 47.8609 13.3677C49.8104 11.5358 50.2156 9.78456 49.0144 8.38599C48.3746 7.64107 46.5965 7.69728 45.754 8.48874L45.0819 9.12033L44.4503 8.48874C43.622 7.66041 41.9139 7.64651 41.0989 8.46154ZM17.483 13.7536C12.834 14.6796 7.6444 18.1044 4.37371 22.4052C1.96459 25.5729 0 30.8085 0 34.0607V35.6593H4.22503C8.96893 35.6593 8.46698 35.9268 8.91181 33.1623C9.01245 32.5367 9.49626 31.1303 9.98673 30.037C11.0623 27.6402 13.8703 24.7065 16.2842 23.4578C17.5924 22.7812 21.0179 21.7894 22.136 21.7634C22.2605 21.7607 22.3626 19.8544 22.3626 17.5275V13.2967L20.9272 13.3251C20.1379 13.3408 18.5879 13.5336 17.483 13.7536ZM32.6927 19.315L29.6798 22.3113L30.4785 23.0589C32.7721 25.2057 37.986 27.7641 41.3666 28.4018C43.4282 28.7907 47.6581 28.794 50.0137 28.4087C51.9493 28.0923 55 26.9799 55 26.5904C55 26.4613 54.5343 25.5593 53.9656 24.5859C53.3965 23.6122 52.4434 21.9758 51.8475 20.949C50.7677 19.0883 50.7608 19.0832 49.7844 19.3932C48.0476 19.9451 46.1154 20.2059 44.8764 20.056C42.0771 19.7169 38.7327 18.4217 37.0715 17.0328C36.6019 16.6402 36.1024 16.3187 35.9615 16.3187C35.821 16.3187 34.3499 17.6671 32.6927 19.315ZM16.7889 31.4911C16.4526 34.4645 14.8866 37.497 12.559 39.6816C10.8196 41.3144 7.06206 43.107 4.83758 43.3651L3.02198 43.5757V47.9633V52.3506L5.06181 52.1406C8.15964 51.8218 9.55852 51.4223 12.6923 49.9602C17.5619 47.6883 21.5996 43.6721 23.7283 38.9835C24.4765 37.335 25.6258 32.9553 25.7699 31.2019L25.9002 29.6154H21.4506H17.001L16.7889 31.4911ZM29.6154 33.9973V38.3791H30.467C32.9163 38.3791 36.879 40.2014 39.1969 42.3932C41.1503 44.2406 43.1037 48.0594 43.4044 50.6184L43.5996 52.2802H47.9818H52.3636L52.1678 50.3673C51.5918 44.7473 48.8938 39.3032 44.9531 35.8104C42.2618 33.4249 41.816 33.1254 39.0304 31.829C36.4221 30.6157 32.492 29.6154 30.3313 29.6154H29.6154V33.9973Z" fill="#E19DC4"/>
</svg>
